<svg version="1.1" id="Layer_1" xmlns="http://www.w3.org/2000/svg" xmlns:xlink="http://www.w3.org/1999/xlink" x="0px" y="0px"
	 width="100%" viewBox="0 0 1024 1024" enable-background="new 0 0 1024 1024" xml:space="preserve">
<path fill="none" opacity="1.000000" stroke="#000000" stroke-linecap="round" stroke-linejoin="round" stroke-width="9.000000"
	d="
M432.500000,383.500000 
	C428.771912,381.368256 425.199768,382.495728 422.577484,385.078674 
	C416.078613,391.479950 407.598053,393.599396 399.481842,396.448212 
	C385.210388,401.457581 370.449432,405.134613 356.562012,411.143280 
	C348.444641,414.655426 339.744202,417.166382 332.523804,422.532013 
	C321.031433,431.072205 312.869537,442.659302 304.520996,454.015442 
	C285.398346,480.027252 268.459747,507.533997 249.979614,533.985779 
	C237.878372,551.307068 225.161789,568.228149 214.592758,586.553528 
	C209.846115,594.783569 206.321442,603.742737 206.587509,613.497620 
	C206.785065,620.740540 209.297470,627.508179 212.490356,634.004761 
	C222.869873,655.123962 236.964157,673.811951 251.065491,692.450439 
	C262.552307,707.633179 275.557526,721.513489 289.483582,734.517578 
	C292.512024,737.345459 295.738129,739.225952 299.960846,740.174316 
	C305.297668,741.372742 307.924866,746.309875 311.077271,750.441040 
	C313.660858,753.826782 315.500366,757.804749 318.985413,760.518738 
	C323.432556,763.982117 326.967102,763.178101 328.986511,757.994751 
	C331.225159,752.248596 334.966492,747.451233 339.072845,743.068237 
	C344.882080,736.867737 350.622864,730.494690 358.006470,726.010620 
	C360.097412,724.740845 361.512451,722.845764 363.000000,721.000000 
"/>
<path fill="none" opacity="1.000000" stroke="#000000" stroke-linecap="round" stroke-linejoin="round" stroke-width="9.000000"
	d="
M617.500000,821.000000 
	C621.790527,827.571228 624.576660,828.348328 630.471924,823.962280 
	C639.547913,817.210022 645.526367,808.075012 650.599060,798.050171 
	C657.364380,784.680420 660.731995,770.303955 664.544006,756.011719 
	C665.564026,752.187500 666.913635,748.596069 670.424622,745.901733 
	C675.059937,742.344543 676.427063,736.461487 678.923462,731.461792 
	C681.596375,726.108398 684.034424,720.856750 688.902771,716.880920 
	C692.187500,714.198303 694.115784,710.216492 695.561829,706.021301 
	C701.610046,688.475769 709.727112,671.759888 716.514038,654.505493 
	C721.256470,642.448730 725.260925,630.135376 727.889893,617.477112 
	C730.231201,606.203735 727.708984,595.671265 722.099609,585.445374 
	C701.914490,548.647766 680.181458,512.796143 657.521545,477.486145 
	C649.879150,465.577423 643.382568,452.923828 634.937927,441.546051 
	C627.287476,431.238190 617.379822,423.864655 605.597290,418.294159 
	C590.579407,411.194031 575.140381,405.331268 559.440186,400.182373 
	C552.706299,397.973999 546.564819,393.500793 539.000000,394.000000 
"/>
<path fill="none" opacity="1.000000" stroke="#000000" stroke-linecap="round" stroke-linejoin="round" stroke-width="10.000000"
	d="
M368.000000,788.500000 
	C366.515869,799.333313 368.095001,810.171143 368.202423,820.997986 
	C368.251404,825.935852 368.603271,831.002075 369.289368,836.028748 
	C370.800903,847.102844 370.962555,858.354309 372.108002,869.488892 
	C372.522644,873.519653 372.442383,877.503479 372.462189,881.500183 
	C372.549622,899.166443 372.140503,916.842773 372.605743,934.497192 
	C373.031830,950.664795 373.854218,966.828918 373.436066,982.998352 
	C373.078156,996.839661 372.166656,1010.666687 371.500000,1024.500000 
"/>
<path fill="none" opacity="1.000000" stroke="#000000" stroke-linecap="round" stroke-linejoin="round" stroke-width="5.000000"
	d="
M389.000000,800.500000 
	C386.138000,803.012146 387.396667,806.589172 387.178406,809.513306 
	C386.322327,820.980774 385.382721,832.613586 387.160065,843.974976 
	C390.287048,863.963501 389.069031,884.009155 388.817413,903.997681 
	C388.490051,930.001282 388.869019,956.002319 388.443451,981.999084 
	C388.301514,990.671631 387.208710,999.329834 387.105591,1008.001282 
	C387.040253,1013.494507 388.000000,1019.000000 388.500000,1024.500000 
"/>
<path fill="none" opacity="1.000000" stroke="#000000" stroke-linecap="round" stroke-linejoin="round" stroke-width="9.000000"
	d="
M567.000000,189.000000 
	C566.274048,184.492447 564.676758,180.314133 561.435425,177.064392 
	C560.153625,175.779266 560.742126,174.291443 560.049011,172.974213 
	C551.056335,155.885132 544.852539,137.404816 534.445923,121.034386 
	C528.617188,111.865379 519.742188,107.781006 509.000092,107.496407 
	C487.292572,106.921303 467.460144,114.015884 448.012573,122.528755 
	C433.953186,128.683029 420.489502,135.956879 410.593079,148.076004 
	C405.407684,154.426056 401.846771,161.782257 403.000000,170.500000 
"/>
<path fill="none" opacity="1.000000" stroke="#000000" stroke-linecap="round" stroke-linejoin="round" stroke-width="9.000000"
	d="
M624.500000,827.500000 
	C626.077515,840.896729 627.873535,854.248962 630.428345,867.513794 
	C633.402100,882.954651 636.037109,898.468384 638.449707,914.007812 
	C641.653442,934.642883 644.509644,955.331909 647.496765,976.000488 
	C649.730103,991.452759 651.622192,1006.945618 653.065247,1022.493958 
	C653.133423,1023.227783 653.036926,1025.148315 655.000000,1024.250000 
"/>
<path fill="none" opacity="1.000000" stroke="#000000" stroke-linecap="round" stroke-linejoin="round" stroke-width="5.000000"
	d="
M416.000000,392.500000 
	C427.620422,419.385345 450.610870,432.289032 476.516541,441.453247 
	C487.829102,445.455109 499.696808,446.248871 511.484039,444.864197 
	C523.276428,443.478882 534.648132,440.255035 543.489502,431.489410 
	C551.035522,424.008118 554.612671,415.135834 551.891785,404.527740 
	C551.298157,402.213165 552.353760,400.501709 552.500000,398.500000 
"/>
<path fill="none" opacity="1.000000" stroke="#000000" stroke-linecap="round" stroke-linejoin="round" stroke-width="10.000000"
	d="
M387.500000,521.500000 
	C383.838593,530.917480 377.596191,537.693604 368.612915,542.702515 
	C361.864471,546.465271 355.408905,551.223083 350.585266,557.564819 
	C349.917389,558.442871 348.837982,559.761414 349.943909,561.534973 
	C354.403656,568.687073 354.529755,577.135681 356.387726,585.026428 
	C360.949554,604.400757 364.277893,624.045349 368.285187,643.544128 
	C370.775177,655.659973 374.060944,667.890015 372.946167,680.495239 
	C372.092041,690.153503 371.124176,699.784912 371.480621,709.500732 
	C371.602722,712.829529 371.500000,716.166687 371.500000,719.500000 
"/>
<path fill="none" opacity="1.000000" stroke="#000000" stroke-linecap="round" stroke-linejoin="round" stroke-width="5.000000"
	d="
M526.000000,872.000000 
	C529.333313,880.000000 532.640503,888.011047 536.005005,895.997864 
	C545.000793,917.352722 552.394897,939.310059 560.504944,960.998169 
	C567.950134,980.908447 573.962708,1001.290466 580.545776,1021.485046 
	C580.963806,1022.767212 580.662964,1025.337402 583.500000,1024.250000 
"/>
<path fill="none" opacity="1.000000" stroke="#000000" stroke-linecap="round" stroke-linejoin="round" stroke-width="10.000000"
	d="
M619.500000,451.500000 
	C620.250000,458.333344 621.262024,465.150146 621.694275,472.003510 
	C622.534058,485.321289 623.144470,498.657562 622.006836,512.000610 
	C621.467102,518.330505 620.999695,524.666687 620.501648,531.000122 
	C620.488647,531.165771 620.439331,531.365784 620.508667,531.495361 
	C625.079041,540.030334 617.482483,548.022339 619.311401,556.540466 
	C619.626953,558.010315 618.526306,560.453369 619.116516,561.954163 
	C622.722961,571.124817 617.078247,579.589172 617.424988,588.502930 
	C617.768066,597.322876 618.244629,606.247131 617.301086,614.978516 
	C616.252258,624.684448 617.066772,634.346741 616.462341,643.997620 
	C614.970398,667.820312 615.686035,691.664490 615.478333,715.499817 
	C615.453247,718.380615 615.664246,721.125610 617.500000,723.500000 
"/>
<path fill="none" opacity="1.000000" stroke="#000000" stroke-linecap="round" stroke-linejoin="round" stroke-width="10.000000"
	d="
M588.500000,854.500000 
	C568.898254,860.232117 549.385132,866.288635 529.479187,870.910278 
	C527.988098,871.256470 526.378845,871.507446 524.427490,870.668701 
	C518.613342,868.169678 508.819580,873.392639 504.339386,878.354980 
	C493.396942,890.475159 492.474365,906.125305 488.736633,920.561279 
	C480.156067,953.701111 472.860535,987.173157 464.905151,1020.477356 
	C464.571442,1021.874329 464.901489,1023.196045 464.352478,1024.500000 
	C462.833344,1024.500000 461.166656,1024.500000 459.500000,1024.500000 
"/>
<path fill="none" opacity="1.000000" stroke="#000000" stroke-linecap="round" stroke-linejoin="round" stroke-width="9.000000"
	d="
M504.000000,880.500000 
	C509.557922,885.637695 510.830658,892.957764 513.436768,899.525085 
	C529.122986,939.054016 545.296021,978.396790 559.494934,1018.501831 
	C560.129456,1020.294128 560.689880,1022.112671 561.428528,1024.355225 
	C562.447876,1025.021240 563.989319,1024.358643 565.500000,1024.250000 
"/>
<path fill="none" opacity="1.000000" stroke="#000000" stroke-linecap="round" stroke-linejoin="round" stroke-width="8.000000"
	d="
M437.500000,326.500000 
	C440.530396,342.085907 441.645569,357.728943 439.017792,373.502960 
	C438.519287,376.495605 437.555817,379.217316 435.502319,381.502106 
	C431.681122,385.753754 431.467712,391.242706 435.004303,395.496399 
	C447.960785,411.079742 464.003052,421.843628 484.012573,425.938538 
	C498.760040,428.956573 513.450012,429.662567 527.517456,422.534424 
	C533.885010,419.307922 538.896973,414.957214 539.321533,407.489868 
	C539.483582,404.640778 539.777588,400.430206 535.000000,399.750000 
"/>
<path fill="none" opacity="1.000000" stroke="#000000" stroke-linecap="round" stroke-linejoin="round" stroke-width="7.000000"
	d="
M347.000000,424.500000 
	C351.450775,429.263245 356.156555,433.668671 359.634003,439.418945 
	C366.594604,450.928925 370.366852,463.269958 372.077209,476.490021 
	C373.024811,483.814362 374.045685,491.086823 374.038605,498.500031 
	C374.028076,509.560089 372.497528,520.390015 369.441345,530.983093 
	C368.389008,534.630554 367.863129,538.246460 368.000000,542.000000 
"/>
<path fill="none" opacity="1.000000" stroke="#000000" stroke-linecap="round" stroke-linejoin="round" stroke-width="9.000000"
	d="
M403.500000,736.000000 
	C409.465302,736.131165 414.425476,739.551453 419.953644,741.159424 
	C428.606323,743.676208 436.248688,748.344299 443.055756,754.437683 
	C447.850586,758.729858 458.840088,756.085938 460.995850,750.498413 
	C462.199921,747.377380 461.358307,744.462891 459.462341,742.029358 
	C451.352020,731.619324 441.304840,723.084900 428.430847,720.322205 
	C416.589478,717.781128 404.205139,717.306763 391.981049,719.911133 
	C387.096252,720.951843 381.868622,721.919128 377.038788,721.228699 
	C372.643524,720.600403 368.353699,720.577881 364.000671,720.472351 
	C363.687897,720.464783 363.386108,720.601196 362.926147,720.063110 
	C358.863220,715.310059 352.896667,712.900269 348.477966,708.522217 
	C345.346771,705.419861 342.636871,702.175293 342.507019,697.499817 
	C342.452728,695.544678 341.109894,694.069580 339.933746,693.078674 
	C324.239014,679.856140 316.574402,661.296265 306.986084,644.007751 
	C303.908356,638.458374 300.466766,633.101868 297.588593,627.454895 
	C296.249573,624.827637 295.210297,622.077820 297.853882,618.879211 
	C300.494659,615.683960 299.323425,611.339844 295.981506,608.018616 
	C293.848633,605.898926 292.239258,603.298523 290.652252,600.899292 
	C283.963074,590.786560 274.385864,584.849487 263.500000,580.500000 
"/>
<path fill="none" opacity="1.000000" stroke="#000000" stroke-linecap="round" stroke-linejoin="round" stroke-width="7.000000"
	d="
M584.000000,280.000000 
	C587.194214,290.719177 584.738098,301.379150 583.435669,311.992096 
	C581.533386,327.493225 577.117798,342.327393 570.512390,356.505768 
	C565.442383,367.388550 556.690979,372.283569 545.003418,371.896240 
	C540.942200,371.761658 537.156616,372.981659 532.986267,372.715057 
	C516.036316,371.631409 500.811707,365.584290 486.012207,357.976257 
	C482.762024,356.305389 479.666687,354.333313 476.500000,352.500000 
"/>
<path fill="none" opacity="1.000000" stroke="#000000" stroke-linecap="round" stroke-linejoin="round" stroke-width="9.000000"
	d="
M581.000000,234.000000 
	C591.572876,228.127487 602.903442,223.581055 612.500122,216.000153 
	C615.666016,213.499237 618.852417,211.023560 621.988098,208.485260 
	C622.899048,207.747833 624.177612,206.960297 624.421082,205.980408 
	C626.905945,195.979401 637.114685,192.910095 642.601929,185.576248 
	C646.170288,180.806961 649.953064,176.520142 649.555542,169.996613 
	C649.203369,164.217667 646.294067,162.005371 640.495056,163.480682 
	C635.311218,164.799530 631.045837,167.778595 627.030396,171.037476 
	C612.547241,182.791855 595.835876,188.929520 577.491699,190.923538 
	C574.707764,191.226135 571.701294,191.670792 568.977966,190.036728 
	C568.291748,189.624954 567.276733,189.386368 566.508362,189.541412 
	C551.326721,192.604843 536.836365,187.128067 522.000000,186.000000 
	C512.313110,180.007782 500.849640,182.324203 490.444000,179.185684 
	C469.666748,172.918915 448.432129,168.561981 426.501648,169.537231 
	C420.824005,169.789719 415.153473,170.383423 409.502502,171.022263 
	C393.759003,172.802032 379.653137,179.133408 366.556976,187.588242 
	C354.074432,195.646881 343.571442,205.948608 337.066345,219.531769 
	C327.870117,238.734314 326.184418,258.295380 338.138855,276.910828 
	C346.985229,290.686401 360.886322,297.720428 376.502441,301.489899 
	C387.036377,304.032593 397.609344,305.472473 408.250000,302.000000 
"/>
<path fill="none" opacity="1.000000" stroke="#000000" stroke-linecap="round" stroke-linejoin="round" stroke-width="9.000000"
	d="
M626.500000,199.000000 
	C621.226624,196.765961 616.466187,199.714294 611.502991,200.518372 
	C602.390198,201.994720 593.269226,203.260452 583.999634,203.013016 
	C580.303040,202.914337 576.658325,203.420547 572.981628,203.838379 
	C568.717590,204.322952 564.249146,203.427887 560.031494,202.791382 
	C550.160950,201.301773 540.310181,201.903336 530.504333,202.162827 
	C518.985901,202.467636 507.487579,203.877106 496.003906,205.038651 
	C486.720337,205.977676 477.134247,206.650772 468.622101,210.285889 
	C461.535370,213.312302 453.919678,213.086456 446.993530,215.984543 
	C439.556976,219.096222 432.065125,222.014679 424.957794,225.923248 
	C416.591370,230.524261 408.654358,235.556396 401.965485,242.466599 
	C398.955017,245.576630 396.860413,249.275803 395.100128,253.046738 
	C391.971069,259.750122 395.815613,269.857727 402.549194,272.890808 
	C404.737762,273.876648 405.185944,275.090668 404.985504,276.998474 
	C404.129883,285.141632 406.427795,292.786072 408.435547,300.516754 
	C409.313843,303.898621 412.419067,305.252045 414.161133,307.893738 
	C419.177948,315.501434 425.524811,321.882660 434.493317,325.019135 
	C441.151306,327.347595 448.112793,321.555084 447.000000,314.500000 
"/>
<path fill="none" opacity="1.000000" stroke="#000000" stroke-linecap="round" stroke-linejoin="round" stroke-width="9.000000"
	d="
M701.500000,612.000000 
	C687.410583,608.892395 674.365234,612.087891 660.866882,616.601990 
	C650.028870,620.226379 649.462219,628.566223 647.670837,636.538391 
	C645.309143,647.048889 644.298279,657.856323 642.438354,668.489197 
	C641.639954,673.053650 640.316284,677.545471 638.965271,681.989441 
	C636.872314,688.874146 634.508240,695.663391 634.465576,702.999817 
	C634.444397,706.636597 632.341858,709.752441 630.331787,712.370850 
	C628.367737,714.929199 627.247986,717.540649 626.500000,720.500000 
"/>
<path fill="none" opacity="1.000000" stroke="#000000" stroke-linecap="round" stroke-linejoin="round" stroke-width="9.000000"
	d="
M453.000000,794.500000 
	C458.617157,798.181702 465.280334,798.566284 471.528870,799.860657 
	C488.983948,803.476501 506.647858,805.877136 524.500488,806.486511 
	C539.262939,806.990479 553.928528,806.182434 568.514099,803.579041 
	C575.218140,802.382385 581.611511,800.048950 588.457214,799.167542 
	C592.754456,798.614258 596.411072,794.565491 599.002441,790.501587 
	C599.992004,788.949646 601.194214,787.788452 602.972168,786.941528 
	C613.384521,781.981628 622.127991,774.843994 629.500000,766.000000 
"/>
<path fill="none" opacity="1.000000" stroke="#000000" stroke-linecap="round" stroke-linejoin="round" stroke-width="8.000000"
	d="
M421.000000,797.500000 
	C420.268219,801.266357 422.613129,804.425720 423.146240,807.978027 
	C423.676147,811.508911 423.390839,814.473633 420.450134,816.424805 
	C417.855194,818.146423 414.892731,818.022766 411.988007,816.523193 
	C405.299286,813.070374 400.149017,807.807312 394.984833,802.514771 
	C390.422485,797.839172 385.812958,793.114136 379.957794,790.081543 
	C376.792969,788.442383 373.493958,786.200684 369.479858,787.953857 
	C368.943054,788.188293 368.169373,788.125305 367.471130,787.534119 
	C364.470123,784.993469 360.691895,784.708496 357.013672,783.934998 
	C348.896545,782.227966 342.325897,777.873901 336.966461,771.528320 
	C334.156433,768.201172 331.000000,765.166687 328.000000,762.000000 
"/>
<path fill="none" opacity="1.000000" stroke="#000000" stroke-linecap="round" stroke-linejoin="round" stroke-width="5.000000"
	d="
M548.000000,807.000000 
	C550.273865,818.178223 548.606201,829.180542 545.892700,839.973022 
	C543.821167,848.212158 537.413940,853.471191 531.007019,858.508911 
	C527.202820,861.500122 522.684143,863.938538 522.000000,869.500000 
"/>
<path fill="none" opacity="1.000000" stroke="#000000" stroke-linecap="round" stroke-linejoin="round" stroke-width="6.000000"
	d="
M525.500000,807.500000 
	C525.206726,818.688965 526.435852,829.937866 523.566223,841.017151 
	C522.156250,846.461182 520.429871,851.810730 517.379333,856.420166 
	C514.349548,860.998169 512.858887,865.622009 513.500000,871.000000 
"/>
<path fill="none" opacity="1.000000" stroke="#000000" stroke-linecap="round" stroke-linejoin="round" stroke-width="6.000000"
	d="
M685.000000,718.000000 
	C682.500000,714.000000 680.213257,709.846191 677.460449,706.028503 
	C668.829651,694.059082 657.891541,690.183167 643.062561,693.759521 
	C640.625305,694.347351 638.616516,693.181030 636.500000,694.000000 
"/>
<path fill="none" opacity="1.000000" stroke="#000000" stroke-linecap="round" stroke-linejoin="round" stroke-width="10.000000"
	d="
M349.000000,560.500000 
	C346.481354,561.711731 344.068481,562.938599 341.948730,564.945862 
	C332.254913,574.125244 323.429047,584.104858 314.468719,593.971558 
	C309.476501,599.468689 304.790375,605.321228 298.500000,609.500000 
"/>
<path fill="none" opacity="1.000000" stroke="#000000" stroke-linecap="round" stroke-linejoin="round" stroke-width="8.000000"
	d="
M296.000000,621.500000 
	C292.567566,621.554077 290.789368,618.917358 288.475098,617.030579 
	C275.250336,606.248413 260.585541,601.134949 243.500000,606.000000 
"/>
<path fill="none" opacity="1.000000" stroke="#000000" stroke-linecap="round" stroke-linejoin="round" stroke-width="8.000000"
	d="
M404.500000,273.750000 
	C406.666687,270.833344 408.722809,267.825958 411.024628,265.020203 
	C414.966095,260.215820 420.025085,259.105042 426.013855,260.437714 
	C431.113434,261.572540 436.401611,261.888489 441.467651,263.131805 
	C443.606537,263.656769 444.093628,263.043671 445.071930,261.546997 
	C446.081665,260.002167 447.645233,258.811005 449.004150,257.504303 
	C452.640411,254.007751 456.569824,252.031860 461.941223,251.144241 
	C468.758545,250.017700 475.014771,245.898346 482.009216,244.547714 
	C483.367523,244.285431 483.855682,243.553986 484.540405,242.526947 
	C490.716949,233.263092 500.453552,232.854736 509.994507,233.167633 
	C516.037720,233.365829 522.151001,234.542465 528.003052,236.490891 
	C530.644287,237.370285 533.833435,237.951035 535.380066,240.086838 
	C539.946472,246.392593 546.397583,244.666031 552.488342,245.147598 
	C553.954956,245.263550 554.192810,244.172974 554.394348,243.916855 
	C559.921692,236.893631 567.488892,234.322571 575.992310,233.426743 
	C577.918274,233.223816 579.774048,233.243271 580.938477,234.554611 
	C583.819641,237.799179 587.403320,239.450378 591.478149,240.578812 
	C593.438110,241.121582 595.218262,242.417297 596.987061,243.520782 
	C599.237610,244.924866 600.199280,246.873840 599.001099,249.500504 
	C596.896851,254.113541 597.765137,259.203827 596.649963,264.034637 
	C594.987976,271.234131 589.985291,275.179901 584.513000,279.018524 
	C583.587769,279.667572 582.893921,279.204010 581.988525,279.108765 
	C579.345398,278.830688 576.630798,278.759277 573.932129,279.669495 
	C565.254822,272.330139 559.046570,263.483002 555.969727,252.508484 
	C555.345825,250.283096 554.333313,248.166672 553.500000,246.000000 
"/>
<path fill="none" opacity="1.000000" stroke="#000000" stroke-linecap="round" stroke-linejoin="round" stroke-width="7.000000"
	d="
M401.500000,754.500000 
	C403.893219,757.013550 406.942383,758.507751 409.998016,760.004028 
	C422.860870,766.302734 432.512421,776.687622 442.979919,786.022522 
	C445.901031,788.627563 448.365997,791.760803 452.000000,793.500000 
"/>
<path fill="none" opacity="1.000000" stroke="#000000" stroke-linecap="round" stroke-linejoin="round" stroke-width="8.000000"
	d="
M667.500000,747.500000 
	C665.500000,745.000000 663.435364,742.548645 661.511414,739.991394 
	C654.084961,730.120544 644.378601,724.562988 632.033630,722.768677 
	C627.821655,722.156494 624.125732,721.709778 619.958313,722.847351 
	C616.886536,723.685913 615.760437,725.680359 615.624634,728.007263 
	C615.402649,731.810547 615.009399,735.692322 615.988098,739.503052 
	C617.263306,744.468201 616.225952,748.803955 612.517517,752.517517 
	C607.587708,757.454102 602.677124,762.398926 596.995483,766.493774 
	C596.697083,766.708801 596.283447,766.774475 596.007202,767.008484 
	C585.852722,775.610718 586.570251,781.472351 598.495850,787.508240 
	C599.028198,787.777649 599.500000,788.166687 600.000000,788.500000 
"/>
<path fill="none" opacity="1.000000" stroke="#000000" stroke-linecap="round" stroke-linejoin="round" stroke-width="6.000000"
	d="
M342.000000,699.000000 
	C323.390656,703.147034 311.461090,714.567627 305.492981,732.497681 
	C304.710693,734.847961 303.833313,737.166687 302.999969,739.500000 
"/>
<path fill="none" opacity="1.000000" stroke="#000000" stroke-linecap="round" stroke-linejoin="round" stroke-width="9.000000"
	d="
M621.500000,573.000000 
	C625.219421,574.130188 627.376038,577.173889 629.439209,580.043701 
	C634.132141,586.571716 638.712341,593.202148 642.936890,600.039001 
	C646.736145,606.187378 650.000000,612.666687 653.500000,619.000000 
"/>
<path fill="none" opacity="1.000000" stroke="#000000" stroke-linecap="round" stroke-linejoin="round" stroke-width="7.000000"
	d="
M483.000000,245.000000 
	C486.683624,250.616577 486.315033,257.419373 488.424622,263.526031 
	C493.738525,278.908203 513.960876,285.534119 527.569397,276.605804 
	C535.609070,271.331085 538.757935,263.663269 540.409851,254.982849 
	C541.002808,251.866913 541.841125,248.909576 543.000000,246.000000 
"/>
<path fill="none" opacity="1.000000" stroke="#000000" stroke-linecap="round" stroke-linejoin="round" stroke-width="6.000000"
	d="
M569.500000,320.000000 
	C559.734558,315.829102 549.885437,317.311432 539.995728,319.480377 
	C534.185974,320.754547 528.333313,321.833344 522.500000,323.000000 
"/>
<path fill="none" opacity="1.000000" stroke="#000000" stroke-linecap="round" stroke-linejoin="round" stroke-width="7.000000"
	d="
M641.000000,775.500000 
	C636.262085,785.555359 628.345886,792.660828 619.530823,799.042603 
	C613.348022,803.518738 606.195251,806.668823 600.557312,812.427124 
	C591.460693,810.929138 591.476318,810.926208 589.980957,803.003601 
	C589.787170,801.977234 589.333313,801.000000 589.000000,800.000000 
"/>
<path fill="none" opacity="1.000000" stroke="#000000" stroke-linecap="round" stroke-linejoin="round" stroke-width="6.000000"
	d="
M560.000000,176.500000 
	C557.749390,177.412369 555.397339,177.472992 553.000732,177.529739 
	C543.164673,177.762619 533.308594,176.855652 523.484558,178.401840 
	C520.578430,178.859238 518.285950,179.738556 516.500000,182.000000 
"/>
<path fill="none" opacity="1.000000" stroke="#000000" stroke-linecap="round" stroke-linejoin="round" stroke-width="8.000000"
	d="
M691.500000,590.500000 
	C676.637085,594.527161 663.559326,601.608948 653.000000,613.000000 
"/>
<path fill="none" opacity="1.000000" stroke="#000000" stroke-linecap="round" stroke-linejoin="round" stroke-width="8.000000"
	d="
M445.000000,756.500000 
	C444.938934,759.989502 446.314880,762.671753 448.947083,765.058350 
	C452.169281,767.979980 455.214600,771.160461 457.941742,774.546936 
	C460.871094,778.184509 460.965912,783.582581 457.913727,786.921143 
	C455.096649,790.002625 452.923065,793.308472 450.900757,796.944824 
	C446.185638,805.423340 439.408722,805.985474 431.087402,801.343323 
	C427.956238,799.596619 425.263977,797.338928 421.509399,796.916443 
	C420.447815,796.796936 419.332092,795.825806 418.525879,794.975464 
	C409.847168,785.823059 399.890350,778.382019 388.750000,772.500000 
"/>
<path fill="none" opacity="1.000000" stroke="#000000" stroke-linecap="round" stroke-linejoin="round" stroke-width="6.000000"
	d="
M423.000000,273.250000 
	C428.085632,275.284576 431.310242,279.150818 433.486725,284.005951 
	C434.330139,285.887329 434.401093,287.945740 432.955109,289.457062 
	C430.747314,291.764618 427.859375,293.761108 429.055084,297.482300 
	C430.311493,301.392303 433.259857,303.899780 436.994080,305.513702 
	C437.536774,305.748230 438.000000,306.166656 438.500000,306.500000 
"/>
<path fill="none" opacity="1.000000" stroke="#000000" stroke-linecap="round" stroke-linejoin="round" stroke-width="9.000000"
	d="
M461.000000,214.500000 
	C462.299103,220.446350 461.954773,226.483154 462.008179,232.499924 
	C462.031799,235.157028 461.018921,237.418533 459.495880,239.496979 
	C456.859283,243.095016 455.866821,247.091705 456.500000,251.500000 
"/>
<path fill="none" opacity="1.000000" stroke="#000000" stroke-linecap="round" stroke-linejoin="round" stroke-width="7.000000"
	d="
M636.000000,504.500000 
	C635.831726,514.217773 632.528748,523.150879 628.945129,531.977722 
	C627.912537,534.521301 625.719971,536.197266 623.000000,537.000000 
"/>
<path fill="none" opacity="1.000000" stroke="#000000" stroke-linecap="round" stroke-linejoin="round" stroke-width="8.000000"
	d="
M645.500000,788.500000 
	C641.640564,797.712463 634.914124,804.634399 627.495972,810.995300 
	C624.353271,813.689941 620.967041,816.139282 618.095642,819.092957 
	C616.903809,820.318848 615.839844,820.283569 614.506592,820.534851 
	C605.584534,822.215820 604.055908,821.395264 601.000000,813.000000 
"/>
<path fill="none" opacity="1.000000" stroke="#000000" stroke-linecap="round" stroke-linejoin="round" stroke-width="5.000000"
	d="
M538.000000,285.500000 
	C537.833313,286.833344 537.686707,288.169525 537.496460,289.499481 
	C536.754639,294.685974 541.447937,297.622467 545.509033,295.014099 
	C550.553223,291.774292 555.982727,292.038147 561.500000,293.500000 
"/>
<path fill="none" opacity="1.000000" stroke="#000000" stroke-linecap="round" stroke-linejoin="round" stroke-width="9.000000"
	d="
M572.000000,205.000000 
	C570.933838,209.662552 573.870361,213.428680 575.185303,217.439240 
	C576.821655,222.429962 577.676208,227.331741 577.500000,232.500000 
"/>
<path fill="none" opacity="1.000000" stroke="#000000" stroke-linecap="round" stroke-linejoin="round" stroke-width="8.000000"
	d="
M536.500000,374.000000 
	C537.839050,376.666656 536.155212,379.308746 536.439575,382.006378 
	C536.777466,385.212097 535.986206,388.385468 537.850220,391.587219 
	C539.164062,393.844025 537.532837,396.606567 536.500000,399.000000 
"/>
<path fill="none" opacity="1.000000" stroke="#000000" stroke-linecap="round" stroke-linejoin="round" stroke-width="6.000000"
	d="
M574.000000,280.000000 
	C573.666687,282.833344 573.835266,285.851624 572.876160,288.454376 
	C571.604675,291.904968 567.779480,292.972168 565.000000,295.000000 
"/>
<path fill="none" opacity="1.000000" stroke="#000000" stroke-linecap="round" stroke-linejoin="round" stroke-width="5.000000"
	d="
M447.000000,321.500000 
	C451.699280,325.691132 454.298920,331.756927 459.500000,335.500000 
"/>
<path fill="none" opacity="1.000000" stroke="#000000" stroke-linecap="round" stroke-linejoin="round" stroke-width="6.000000"
	d="
M562.500000,332.000000 
	C558.755737,334.201050 554.426086,332.889862 550.500000,334.000000 
"/>
<path fill="none" opacity="1.000000" stroke="#000000" stroke-linecap="round" stroke-linejoin="round" stroke-width="3.000000"
	d="
M534.000000,401.500000 
	C530.690979,403.802246 531.312378,408.173187 529.000000,411.000000 
"/>
<path fill="none" opacity="1.000000" stroke="#000000" stroke-linecap="round" stroke-linejoin="round" stroke-width="5.000000"
	d="
M422.500000,271.500000 
	C420.314575,274.722076 417.127411,277.343109 416.500000,281.500000 
"/>
</svg>